<mxfile host="app.diagrams.net" modified="2024-04-25T23:55:58.638Z" agent="Mozilla/5.0 (Windows NT 10.0; Win64; x64) AppleWebKit/537.36 (KHTML, like Gecko) Chrome/121.0.0.0 Safari/537.36 OPR/107.0.0.0" etag="l5fSu5fcvxnnihj5-dM2" version="24.3.0" type="device">
  <diagram name="P치gina-1" id="2MKIywg9TnXjQ0TglepC">
    <mxGraphModel dx="1633" dy="758" grid="1" gridSize="10" guides="1" tooltips="1" connect="1" arrows="1" fold="1" page="1" pageScale="1" pageWidth="827" pageHeight="1169" math="0" shadow="0">
      <root>
        <mxCell id="0" />
        <mxCell id="1" parent="0" />
        <mxCell id="2a7NzqGi91u9lOI0I6y8-1" value="Gato" style="swimlane;fontStyle=1;align=center;verticalAlign=top;childLayout=stackLayout;horizontal=1;startSize=26;horizontalStack=0;resizeParent=1;resizeParentMax=0;resizeLast=0;collapsible=1;marginBottom=0;whiteSpace=wrap;html=1;" vertex="1" parent="1">
          <mxGeometry x="90" y="80" width="230" height="220" as="geometry" />
        </mxCell>
        <mxCell id="2a7NzqGi91u9lOI0I6y8-2" value="- u침as : int&lt;div&gt;- dientes : int&lt;/div&gt;&lt;div&gt;- gatoRecostarse : bool&lt;/div&gt;" style="text;strokeColor=none;fillColor=none;align=left;verticalAlign=top;spacingLeft=4;spacingRight=4;overflow=hidden;rotatable=0;points=[[0,0.5],[1,0.5]];portConstraint=eastwest;whiteSpace=wrap;html=1;" vertex="1" parent="2a7NzqGi91u9lOI0I6y8-1">
          <mxGeometry y="26" width="230" height="84" as="geometry" />
        </mxCell>
        <mxCell id="2a7NzqGi91u9lOI0I6y8-3" value="" style="line;strokeWidth=1;fillColor=none;align=left;verticalAlign=middle;spacingTop=-1;spacingLeft=3;spacingRight=3;rotatable=0;labelPosition=right;points=[];portConstraint=eastwest;strokeColor=inherit;" vertex="1" parent="2a7NzqGi91u9lOI0I6y8-1">
          <mxGeometry y="110" width="230" height="8" as="geometry" />
        </mxCell>
        <mxCell id="2a7NzqGi91u9lOI0I6y8-4" value="+ acariciar()&lt;div&gt;+ ronrronear()&lt;/div&gt;&lt;div&gt;+ gru침ir()&lt;/div&gt;&lt;div&gt;+ morder()&lt;/div&gt;&lt;div&gt;+ acariciarPanza()&lt;/div&gt;" style="text;strokeColor=none;fillColor=none;align=left;verticalAlign=top;spacingLeft=4;spacingRight=4;overflow=hidden;rotatable=0;points=[[0,0.5],[1,0.5]];portConstraint=eastwest;whiteSpace=wrap;html=1;" vertex="1" parent="2a7NzqGi91u9lOI0I6y8-1">
          <mxGeometry y="118" width="230" height="102" as="geometry" />
        </mxCell>
        <mxCell id="2a7NzqGi91u9lOI0I6y8-17" style="edgeStyle=orthogonalEdgeStyle;rounded=0;orthogonalLoop=1;jettySize=auto;html=1;" edge="1" parent="1" source="2a7NzqGi91u9lOI0I6y8-6" target="2a7NzqGi91u9lOI0I6y8-10">
          <mxGeometry relative="1" as="geometry" />
        </mxCell>
        <mxCell id="2a7NzqGi91u9lOI0I6y8-6" value="acariciar()" style="ellipse;whiteSpace=wrap;html=1;" vertex="1" parent="1">
          <mxGeometry x="570" y="20" width="120" height="80" as="geometry" />
        </mxCell>
        <mxCell id="2a7NzqGi91u9lOI0I6y8-18" style="edgeStyle=orthogonalEdgeStyle;rounded=0;orthogonalLoop=1;jettySize=auto;html=1;entryX=0.5;entryY=0;entryDx=0;entryDy=0;" edge="1" parent="1" source="2a7NzqGi91u9lOI0I6y8-10" target="2a7NzqGi91u9lOI0I6y8-16">
          <mxGeometry relative="1" as="geometry" />
        </mxCell>
        <mxCell id="2a7NzqGi91u9lOI0I6y8-10" value="gatoRonrronear()" style="shape=parallelogram;perimeter=parallelogramPerimeter;whiteSpace=wrap;html=1;fixedSize=1;" vertex="1" parent="1">
          <mxGeometry x="570" y="138" width="120" height="60" as="geometry" />
        </mxCell>
        <mxCell id="2a7NzqGi91u9lOI0I6y8-20" style="edgeStyle=orthogonalEdgeStyle;rounded=0;orthogonalLoop=1;jettySize=auto;html=1;entryX=0.5;entryY=0;entryDx=0;entryDy=0;" edge="1" parent="1" source="2a7NzqGi91u9lOI0I6y8-16" target="2a7NzqGi91u9lOI0I6y8-19">
          <mxGeometry relative="1" as="geometry" />
        </mxCell>
        <mxCell id="2a7NzqGi91u9lOI0I6y8-16" value="gatoRecostarse() = acariciarPanza()" style="shape=document;whiteSpace=wrap;html=1;boundedLbl=1;" vertex="1" parent="1">
          <mxGeometry x="570" y="280" width="120" height="80" as="geometry" />
        </mxCell>
        <mxCell id="2a7NzqGi91u9lOI0I6y8-22" style="edgeStyle=orthogonalEdgeStyle;rounded=0;orthogonalLoop=1;jettySize=auto;html=1;entryX=0.5;entryY=0;entryDx=0;entryDy=0;" edge="1" parent="1" source="2a7NzqGi91u9lOI0I6y8-19" target="2a7NzqGi91u9lOI0I6y8-21">
          <mxGeometry relative="1" as="geometry" />
        </mxCell>
        <mxCell id="2a7NzqGi91u9lOI0I6y8-26" value="True" style="edgeLabel;html=1;align=center;verticalAlign=middle;resizable=0;points=[];" vertex="1" connectable="0" parent="2a7NzqGi91u9lOI0I6y8-22">
          <mxGeometry x="-0.2862" y="3" relative="1" as="geometry">
            <mxPoint as="offset" />
          </mxGeometry>
        </mxCell>
        <mxCell id="2a7NzqGi91u9lOI0I6y8-24" style="edgeStyle=orthogonalEdgeStyle;rounded=0;orthogonalLoop=1;jettySize=auto;html=1;entryX=0.5;entryY=0;entryDx=0;entryDy=0;" edge="1" parent="1" source="2a7NzqGi91u9lOI0I6y8-19" target="2a7NzqGi91u9lOI0I6y8-23">
          <mxGeometry relative="1" as="geometry">
            <Array as="points">
              <mxPoint x="500" y="490" />
            </Array>
          </mxGeometry>
        </mxCell>
        <mxCell id="2a7NzqGi91u9lOI0I6y8-27" value="False" style="edgeLabel;html=1;align=center;verticalAlign=middle;resizable=0;points=[];" vertex="1" connectable="0" parent="2a7NzqGi91u9lOI0I6y8-24">
          <mxGeometry x="0.0941" y="2" relative="1" as="geometry">
            <mxPoint as="offset" />
          </mxGeometry>
        </mxCell>
        <mxCell id="2a7NzqGi91u9lOI0I6y8-19" value="gatoRonrronear()" style="rhombus;whiteSpace=wrap;html=1;" vertex="1" parent="1">
          <mxGeometry x="560" y="450" width="140" height="80" as="geometry" />
        </mxCell>
        <mxCell id="2a7NzqGi91u9lOI0I6y8-21" value="Fin" style="ellipse;whiteSpace=wrap;html=1;" vertex="1" parent="1">
          <mxGeometry x="707" y="720" width="120" height="80" as="geometry" />
        </mxCell>
        <mxCell id="2a7NzqGi91u9lOI0I6y8-25" style="edgeStyle=orthogonalEdgeStyle;rounded=0;orthogonalLoop=1;jettySize=auto;html=1;entryX=0;entryY=0.5;entryDx=0;entryDy=0;" edge="1" parent="1" source="2a7NzqGi91u9lOI0I6y8-23" target="2a7NzqGi91u9lOI0I6y8-21">
          <mxGeometry relative="1" as="geometry">
            <Array as="points">
              <mxPoint x="500" y="760" />
            </Array>
          </mxGeometry>
        </mxCell>
        <mxCell id="2a7NzqGi91u9lOI0I6y8-23" value="gatoMuerde = recibirDa침o" style="shape=document;whiteSpace=wrap;html=1;boundedLbl=1;" vertex="1" parent="1">
          <mxGeometry x="440" y="600" width="120" height="80" as="geometry" />
        </mxCell>
      </root>
    </mxGraphModel>
  </diagram>
</mxfile>
